<?xml version="1.0" encoding="UTF-8"?>
<svg id="Layer_2" data-name="Layer 2" xmlns="http://www.w3.org/2000/svg" viewBox="0 0 181.04 179.84">
  <defs>
    <style>
      .cls-1 {
        fill: #f1e912;
      }

      .cls-1, .cls-2 {
        stroke-width: 0px;
      }

      .cls-3 {
        fill: #151515;
        font-family: Outfit-Bold, Outfit;
        font-size: 30px;
        font-weight: 700;
      }

      .cls-2 {
        fill: #ddd;
      }
    </style>
  </defs>
  <g id="Layer_1-2" data-name="Layer 1">
    <path class="cls-2" d="m89.93,0C40.27,0,0,40.25,0,89.91s40.27,89.93,89.93,89.93,89.93-40.25,89.93-89.93S139.59,0,89.93,0Zm0,151.72c-34.14,0-61.79-27.67-61.79-61.81s27.65-61.79,61.79-61.79,61.79,27.67,61.79,61.79-27.67,61.81-61.79,61.81Z"/>
    <text class="cls-3" transform="translate(66.4 86.01)"><tspan x="0" y="0">INR </tspan><tspan x="-17.31" y="30">1200+</tspan></text>
    <path class="cls-1" d="m113.92,174.79c-48.06,12.61-97.21-16.14-109.81-64.17C-6.02,71.97,10.59,32.59,42.5,12.1l15.21,23.69c-21.93,14.06-33.36,41.12-26.39,67.69,8.66,33,42.44,52.74,75.47,44.08,33-8.66,52.74-42.44,44.09-75.44l27.2-7.14c12.6,48.03-16.11,97.2-64.15,109.8Z"/>
  </g>
</svg>