<?xml version="1.0" encoding="UTF-8"?>
<svg id="Layer_2" data-name="Layer 2" xmlns="http://www.w3.org/2000/svg" viewBox="0 0 179.86 179.84">
  <defs>
    <style>
      .cls-1 {
        fill: #f1e912;
      }

      .cls-1, .cls-2 {
        stroke-width: 0px;
      }

      .cls-3 {
        fill: #151515;
        font-family: Outfit-Bold, Outfit;
        font-size: 35px;
        font-weight: 700;
      }

      .cls-2 {
        fill: #ddd;
      }
    </style>
  </defs>
  <g id="Layer_1-2" data-name="Layer 1">
    <path class="cls-2" d="m89.93,0C40.27,0,0,40.25,0,89.91s40.27,89.93,89.93,89.93,89.93-40.25,89.93-89.93S139.59,0,89.93,0Zm0,151.72c-34.14,0-61.79-27.67-61.79-61.81s27.65-61.79,61.79-61.79,61.79,27.67,61.79,61.79-27.67,61.81-61.79,61.81Z"/>
    <text class="cls-3" transform="translate(78.93 104.12)"><tspan x="0" y="0">2</tspan></text>
    <path class="cls-1" d="m179.86,89.91c0,9.71-1.54,19.05-4.38,27.81l-26.78-8.7c1.96-6.02,3.02-12.44,3.02-19.11,0-34.11-27.67-61.79-61.79-61.79V0c49.66,0,89.93,40.25,89.93,89.91Z"/>
  </g>
</svg>