<?xml version="1.0" encoding="UTF-8"?>
<svg id="Layer_2" data-name="Layer 2" xmlns="http://www.w3.org/2000/svg" viewBox="0 0 179.86 179.84">
  <defs>
    <style>
      .cls-1 {
        fill: #f1e912;
      }

      .cls-1, .cls-2 {
        stroke-width: 0px;
      }

      .cls-3 {
        fill: #151515;
        font-family: Outfit-Bold, Outfit;
        font-size: 35px;
        font-weight: 700;
      }

      .cls-2 {
        fill: #ddd;
      }
    </style>
  </defs>
  <g id="Layer_1-2" data-name="Layer 1">
    <path class="cls-2" d="m89.93,0C40.27,0,0,40.25,0,89.91s40.27,89.93,89.93,89.93,89.93-40.25,89.93-89.93S139.59,0,89.93,0Zm0,151.72c-34.14,0-61.79-27.67-61.79-61.81s27.65-61.79,61.79-61.79,61.79,27.67,61.79,61.79-27.67,61.81-61.79,61.81Z"/>
    <text class="cls-3" transform="translate(47.15 104.12)"><tspan x="0" y="0">100+</tspan></text>
    <path class="cls-1" d="m55.93,7.02c36.89-15.41,78.19-4.4,102.89,24.36l-21.34,18.34c-16.97-19.75-45.36-27.31-70.7-16.72-31.48,13.15-46.35,49.35-33.2,80.82l-25.95,10.84C-11.51,78.84,10.11,26.16,55.93,7.02Z"/>
  </g>
</svg>