<?xml version="1.0" encoding="UTF-8"?>
<svg id="Layer_2" data-name="Layer 2" xmlns="http://www.w3.org/2000/svg" viewBox="0 0 179.86 179.84">
  <defs>
    <style>
      .cls-1 {
        fill: #d8dddc;
      }

      .cls-1, .cls-2 {
        stroke-width: 0px;
      }

      .cls-2 {
        fill: #cadb2b;
      }

      .cls-3 {
        fill: #141414;
        font-family: Outfit-Bold, Outfit;
        font-size: 35px;
        font-weight: 700;
      }
    </style>
  </defs>
  <g id="Layer_1-2" data-name="Layer 1">
    <g>
      <path class="cls-1" d="m89.93,0C40.27,0,0,40.25,0,89.91s40.27,89.93,89.93,89.93,89.93-40.25,89.93-89.93S139.59,0,89.93,0Zm0,151.72c-34.14,0-61.79-27.67-61.79-61.81s27.65-61.79,61.79-61.79,61.79,27.67,61.79,61.79-27.67,61.81-61.79,61.81Z"/>
      <text class="cls-3" transform="translate(48.44 100.23)"><tspan x="0" y="0">800+</tspan></text>
      <path class="cls-2" d="m93.25.06c49.65,1.86,88.36,43.61,86.5,93.23-1.12,29.89-16.69,55.82-39.75,71.32l-15.68-23.37c15.85-10.63,26.56-28.45,27.33-49,1.28-34.09-25.34-62.78-59.46-64.05-34.1-1.28-62.78,25.34-64.05,59.43L.04,86.57C1.9,36.94,43.63-1.79,93.25.06Z"/>
    </g>
  </g>
</svg>