<?xml version="1.0" encoding="UTF-8"?>
<svg id="Layer_2" data-name="Layer 2" xmlns="http://www.w3.org/2000/svg" viewBox="0 0 179.98 179.87">
  <defs>
    <style>
      .cls-1 {
        fill: #d8dddc;
      }

      .cls-1, .cls-2 {
        stroke-width: 0px;
      }

      .cls-2 {
        fill: #cadb2b;
      }

      .cls-3 {
        fill: #141414;
        font-family: Outfit-Bold, Outfit;
        font-size: 30px;
        font-weight: 700;
      }
    </style>
  </defs>
  <g id="Layer_1-2" data-name="Layer 1">
    <g>
      <path class="cls-1" d="m89.93.01C40.27.01,0,40.26,0,89.92s40.27,89.93,89.93,89.93,89.93-40.25,89.93-89.93S139.59.01,89.93.01Zm0,151.72c-34.14,0-61.79-27.67-61.79-61.81s27.65-61.79,61.79-61.79,61.79,27.67,61.79,61.79-27.67,61.81-61.79,61.81Z"/>
      <text class="cls-3" transform="translate(65.69 87.91)"><tspan x="0" y="0">INR </tspan><tspan x="-17.31" y="30">1200+</tspan></text>
      <path class="cls-2" d="m94.63,179.75C45.01,182.27,2.77,144.09.26,94.49-2.26,44.9,35.9,2.64,85.52.12c9.68-.49,19.09.57,27.97,2.97l-7.33,27.18c-6.1-1.65-12.56-2.38-19.22-2.04-34.1,1.73-60.33,30.74-58.6,64.84s30.77,60.3,64.86,58.57c34.07-1.73,60.3-30.76,58.58-64.84l28.08-1.42c2.52,49.6-35.64,91.85-85.23,94.37Z"/>
    </g>
  </g>
</svg>