<?xml version="1.0" encoding="UTF-8"?>
<svg id="Layer_2" data-name="Layer 2" xmlns="http://www.w3.org/2000/svg" viewBox="0 0 180.45 179.84">
  <defs>
    <style>
      .cls-1 {
        fill: #d8dddc;
      }

      .cls-1, .cls-2 {
        stroke-width: 0px;
      }

      .cls-2 {
        fill: #cadb2b;
      }

      .cls-3 {
        fill: #141414;
        font-family: Outfit-Bold, Outfit;
        font-size: 35px;
        font-weight: 700;
      }
    </style>
  </defs>
  <g id="Layer_1-2" data-name="Layer 1">
    <path class="cls-1" d="m90.52,0C40.86,0,.59,40.25.59,89.91s40.27,89.93,89.93,89.93,89.93-40.25,89.93-89.93S140.18,0,90.52,0Zm0,151.72c-34.14,0-61.79-27.67-61.79-61.81s27.65-61.79,61.79-61.79,61.79,27.67,61.79,61.79-27.67,61.81-61.79,61.81Z"/>
    <text class="cls-3" transform="translate(68.99 102.43)"><tspan x="0" y="0">02</tspan></text>
    <path class="cls-2" d="m1.44,105.88c-3.51-19.45-.48-38.56,7.52-55.08l25.34,12.24c-5.5,11.35-7.57,24.48-5.16,37.85,6.05,33.57,38.19,55.9,71.77,49.84l4.99,27.67C57.03,187.21,10.26,154.75,1.44,105.88Z"/>
  </g>
</svg>