<?xml version="1.0" encoding="UTF-8"?>
<svg id="Layer_2" data-name="Layer 2" xmlns="http://www.w3.org/2000/svg" xmlns:xlink="http://www.w3.org/1999/xlink" viewBox="0 0 614.4 359.75">
  <defs>
    <style>
      .cls-1 {
        stroke-width: 2px;
      }

      .cls-1, .cls-2, .cls-3, .cls-4, .cls-5, .cls-6, .cls-7, .cls-8, .cls-9, .cls-10, .cls-11, .cls-12, .cls-13, .cls-14 {
        stroke: #000;
      }

      .cls-2, .cls-15, .cls-3, .cls-4, .cls-7, .cls-16, .cls-9, .cls-14 {
        fill: #fff;
      }

      .cls-2, .cls-3, .cls-5, .cls-7, .cls-9, .cls-10 {
        stroke-linejoin: round;
      }

      .cls-2, .cls-8, .cls-10, .cls-11 {
        stroke-width: 3.5px;
      }

      .cls-3, .cls-5 {
        stroke-width: 2.5px;
      }

      .cls-3, .cls-5, .cls-7 {
        stroke-linecap: square;
      }

      .cls-4, .cls-6, .cls-7, .cls-9, .cls-12, .cls-13, .cls-14 {
        stroke-width: 3px;
      }

      .cls-17, .cls-16, .cls-18, .cls-19 {
        stroke-width: 0px;
      }

      .cls-5, .cls-10, .cls-12, .cls-19 {
        fill: #cf0;
      }

      .cls-20 {
        clip-path: url(#clippath-1);
      }

      .cls-6, .cls-11, .cls-12, .cls-13, .cls-14 {
        stroke-miterlimit: 10;
      }

      .cls-6, .cls-11, .cls-13 {
        fill: none;
      }

      .cls-18 {
        fill: #221f1f;
      }

      .cls-21 {
        clip-path: url(#clippath);
      }

      .cls-13 {
        stroke-dasharray: 0 0 6 6;
      }
    </style>
    <clipPath id="clippath">
      <path class="cls-16" d="m222.73,139.98c0,11.74-9.52,21.25-21.25,21.25s-21.25-9.51-21.25-21.25,9.51-21.25,21.25-21.25,21.25,9.51,21.25,21.25Z"/>
    </clipPath>
    <clipPath id="clippath-1">
      <path class="cls-16" d="m575.77,222.86c0,11.74-9.52,21.25-21.25,21.25s-21.25-9.51-21.25-21.25,9.51-21.25,21.25-21.25,21.25,9.51,21.25,21.25Z"/>
    </clipPath>
  </defs>
  <g id="Layer_1-2" data-name="Layer 1">
    <g>
      <rect class="cls-17" x="322.44" y="128.71" width="2.83" height="3.29"/>
      <rect class="cls-17" x="315.75" y="128.71" width="2.83" height="3.29"/>
      <rect class="cls-17" x="309.06" y="128.71" width="2.83" height="3.29"/>
      <rect class="cls-17" x="302.36" y="128.71" width="2.83" height="3.29"/>
      <rect class="cls-17" x="295.68" y="128.71" width="2.83" height="3.29"/>
      <rect class="cls-17" x="288.98" y="128.71" width="2.83" height="3.29"/>
      <rect class="cls-17" x="282.29" y="128.71" width="2.83" height="3.29"/>
      <rect class="cls-17" x="275.6" y="128.71" width="2.83" height="3.29"/>
      <rect class="cls-17" x="268.91" y="128.71" width="2.83" height="3.29"/>
      <rect class="cls-17" x="262.22" y="128.71" width="2.83" height="3.29"/>
      <rect class="cls-17" x="255.53" y="128.71" width="2.83" height="3.29"/>
      <rect class="cls-17" x="248.84" y="128.71" width="2.82" height="3.29"/>
      <rect class="cls-17" x="242.15" y="128.71" width="2.83" height="3.29"/>
    </g>
    <g>
      <rect class="cls-18" x="540.46" y="262.88" width="73.94" height="2.43"/>
      <rect class="cls-18" x="540.46" y="255.1" width="48.64" height="2.43"/>
    </g>
    <g>
      <rect class="cls-18" x="460.51" y="190.96" width="73.94" height="2.43"/>
      <rect class="cls-18" x="485.81" y="198.74" width="48.64" height="2.43"/>
    </g>
    <g>
      <rect class="cls-17" x="475.77" y="117.48" width="2.83" height="3.29"/>
      <rect class="cls-17" x="469.08" y="117.48" width="2.82" height="3.29"/>
      <rect class="cls-17" x="462.39" y="117.48" width="2.83" height="3.29"/>
      <rect class="cls-17" x="455.7" y="117.48" width="2.83" height="3.29"/>
      <rect class="cls-17" x="449.01" y="117.48" width="2.83" height="3.29"/>
      <rect class="cls-17" x="442.32" y="117.48" width="2.83" height="3.29"/>
      <rect class="cls-17" x="435.62" y="117.48" width="2.83" height="3.29"/>
      <rect class="cls-17" x="428.93" y="117.48" width="2.83" height="3.29"/>
      <rect class="cls-17" x="422.24" y="117.48" width="2.83" height="3.29"/>
      <rect class="cls-17" x="415.55" y="117.48" width="2.83" height="3.29"/>
      <rect class="cls-17" x="408.86" y="117.48" width="2.83" height="3.29"/>
      <rect class="cls-17" x="402.17" y="117.48" width="2.82" height="3.29"/>
      <rect class="cls-17" x="395.48" y="117.48" width="2.83" height="3.29"/>
    </g>
    <g>
      <rect class="cls-17" x="573.07" y="44.18" width="2.83" height="3.29"/>
      <rect class="cls-17" x="566.38" y="44.18" width="2.82" height="3.29"/>
      <rect class="cls-17" x="559.69" y="44.18" width="2.83" height="3.29"/>
      <rect class="cls-17" x="553" y="44.18" width="2.83" height="3.29"/>
      <rect class="cls-17" x="546.31" y="44.18" width="2.83" height="3.29"/>
      <rect class="cls-17" x="539.61" y="44.18" width="2.83" height="3.29"/>
      <rect class="cls-17" x="532.92" y="44.18" width="2.83" height="3.29"/>
      <rect class="cls-17" x="526.23" y="44.18" width="2.83" height="3.29"/>
      <rect class="cls-17" x="519.54" y="44.18" width="2.83" height="3.29"/>
      <rect class="cls-17" x="512.85" y="44.18" width="2.83" height="3.29"/>
      <rect class="cls-17" x="506.16" y="44.18" width="2.83" height="3.29"/>
      <rect class="cls-17" x="499.47" y="44.18" width="2.82" height="3.29"/>
      <rect class="cls-17" x="492.78" y="44.18" width="2.83" height="3.29"/>
    </g>
    <path class="cls-17" d="m269.81,250.35c0,.29-.01.53-.04.72-.03.2-.08.35-.14.47-.06.12-.13.2-.21.25-.08.05-.17.08-.26.08h-4.8v5.23c0,.11-.03.2-.08.27-.05.08-.14.14-.26.2-.13.06-.29.1-.5.13-.2.03-.46.05-.77.05s-.57-.02-.77-.05c-.2-.03-.37-.07-.49-.13-.13-.06-.21-.12-.27-.2-.06-.08-.08-.17-.08-.27v-5.23h-4.79c-.09,0-.17-.03-.25-.08-.08-.05-.15-.14-.21-.25-.06-.12-.11-.28-.15-.47-.04-.2-.05-.44-.05-.72s.02-.52.05-.72c.03-.2.07-.36.13-.48.06-.12.12-.2.19-.26.07-.05.15-.08.25-.08h4.84v-5.22c0-.11.03-.2.08-.29.06-.09.15-.16.27-.21.12-.06.29-.1.49-.13.21-.03.46-.05.77-.05s.57.02.77.05c.21.03.37.07.5.13.12.05.21.13.26.21.05.09.08.18.08.29v5.22h4.85c.08,0,.16.03.24.08.08.05.15.14.2.26.06.12.1.28.13.48.03.2.04.44.04.72Z"/>
    <path class="cls-17" d="m440.86,94.74c0,.29-.01.53-.05.72-.03.2-.08.35-.14.47-.06.12-.13.2-.21.25-.08.05-.17.08-.26.08h-4.8v5.23c0,.11-.03.2-.08.27-.05.08-.14.14-.26.2-.12.06-.29.1-.49.13-.21.03-.46.05-.77.05s-.57-.02-.77-.05c-.21-.03-.37-.07-.49-.13-.13-.06-.22-.12-.27-.2-.06-.08-.08-.17-.08-.27v-5.23h-4.79c-.09,0-.17-.03-.25-.08-.08-.05-.15-.14-.21-.25-.06-.12-.11-.28-.15-.47-.04-.2-.05-.44-.05-.72s.02-.52.05-.72c.03-.2.07-.36.13-.48.06-.12.12-.2.19-.26.07-.05.15-.08.25-.08h4.84v-5.22c0-.11.03-.2.08-.29.06-.09.15-.16.27-.21.12-.06.29-.1.49-.13.21-.03.46-.05.77-.05s.57.02.77.05c.21.03.37.07.49.13.12.05.21.13.26.21.05.09.08.18.08.29v5.22h4.85c.08,0,.16.02.24.08.08.05.15.14.2.26.06.12.1.28.13.48.03.2.05.44.05.72Z"/>
    <path class="cls-17" d="m320.55,148.8c0,.29-.01.53-.04.72-.03.2-.08.35-.14.47-.06.12-.13.2-.21.25-.08.05-.17.08-.26.08h-4.8v5.23c0,.11-.03.2-.08.27-.05.08-.14.14-.26.2-.13.06-.29.1-.49.13-.21.03-.46.05-.77.05s-.57-.02-.77-.05c-.21-.03-.37-.07-.49-.13-.13-.06-.22-.12-.27-.2-.06-.08-.08-.17-.08-.27v-5.23h-4.79c-.09,0-.17-.03-.25-.08-.08-.05-.15-.14-.21-.25-.06-.12-.11-.28-.15-.47-.04-.2-.05-.44-.05-.72s.02-.52.05-.72c.03-.2.07-.36.13-.48.06-.12.12-.2.19-.26.07-.05.15-.08.25-.08h4.84v-5.22c0-.11.03-.2.08-.29.06-.09.15-.16.27-.21.12-.06.29-.1.49-.13.2-.03.46-.05.77-.05s.57.02.77.05c.21.03.37.07.49.13.12.05.21.13.26.21.05.09.08.18.08.29v5.22h4.85c.08,0,.16.03.24.08.08.05.15.14.2.26.06.12.1.28.13.48.03.2.04.44.04.72Z"/>
    <path class="cls-17" d="m463.77,135.81c0,.29-.01.53-.04.72-.03.2-.08.35-.14.47-.06.12-.13.2-.21.25-.08.05-.17.08-.26.08h-4.8v5.23c0,.11-.03.2-.08.27-.05.08-.14.14-.26.2-.13.06-.29.1-.49.13-.21.03-.46.05-.77.05s-.57-.02-.77-.05c-.21-.03-.37-.07-.49-.13-.12-.06-.22-.12-.27-.2-.06-.08-.08-.17-.08-.27v-5.23h-4.79c-.09,0-.17-.03-.25-.08-.08-.05-.15-.14-.21-.25-.06-.12-.11-.28-.15-.47-.04-.2-.05-.44-.05-.72s.02-.52.05-.72c.03-.2.07-.36.13-.48.06-.12.12-.2.19-.26.07-.05.15-.08.25-.08h4.84v-5.22c0-.11.03-.2.08-.29.06-.09.15-.16.27-.21.12-.06.29-.1.49-.13.2-.03.46-.05.77-.05s.57.02.77.05c.21.03.37.07.49.13.12.05.21.13.26.21.05.09.08.18.08.29v5.22h4.85c.08,0,.16.03.24.08.08.05.15.14.2.26.06.12.1.28.13.48.03.2.04.44.04.72Z"/>
    <g>
      <polygon class="cls-14" points="545.42 133.88 479.23 133.88 479.23 164.83 520.84 164.83 519.04 175.37 527.03 164.83 545.42 164.83 545.42 133.88"/>
      <g>
        <rect class="cls-17" x="485.12" y="152.7" width="54.42" height="2.91"/>
        <rect class="cls-17" x="485.12" y="143.37" width="35.8" height="2.91"/>
      </g>
    </g>
    <path class="cls-16" d="m268.51,93.63h0s-.01,0-.02,0h0s0,0,0,0Z"/>
    <g>
      <polygon class="cls-7" points="331.46 91.03 310.23 80.75 310.23 101.21 310.45 101.21 352.47 101.21 352.65 101.21 352.65 80.78 331.46 91.03"/>
      <polygon class="cls-7" points="352.65 80.78 352.65 80.74 310.23 80.74 310.23 80.75 331.46 97.84 352.65 80.78"/>
    </g>
    <g>
      <path class="cls-6" d="m482.15,225.92c0,6.94-6.59,12.56-14.72,12.56s-14.72-5.63-14.72-12.56,6.59-12.57,14.72-12.57,14.72,5.63,14.72,12.57Z"/>
      <polygon class="cls-6" points="473.58 225.92 464.64 221.77 464.64 230.07 473.58 225.92 464.64 221.77 464.64 230.07 473.58 225.92"/>
    </g>
    <g>
      <path class="cls-15" d="m222.73,139.98c0,11.74-9.52,21.25-21.25,21.25s-21.25-9.51-21.25-21.25,9.51-21.25,21.25-21.25,21.25,9.51,21.25,21.25Z"/>
      <g class="cls-21">
        <g>
          <path class="cls-14" d="m209.38,136.01c0,4.37-3.54,7.91-7.91,7.91s-7.91-3.54-7.91-7.91,3.54-7.91,7.91-7.91,7.91,3.54,7.91,7.91Z"/>
          <path class="cls-14" d="m194.89,143.87h13.18c4,0,7.25,3.25,7.25,7.25v21.58c0,4-3.25,7.25-7.25,7.25h-13.18c-4,0-7.25-3.25-7.25-7.25v-21.58c0-4,3.25-7.25,7.25-7.25Z"/>
          <g>
            <line class="cls-14" x1="194.06" y1="151.03" x2="194.06" y2="175.99"/>
            <line class="cls-14" x1="208.89" y1="151.03" x2="208.89" y2="175.99"/>
          </g>
        </g>
      </g>
    </g>
    <g>
      <path class="cls-15" d="m575.77,222.86c0,11.74-9.52,21.25-21.25,21.25s-21.25-9.51-21.25-21.25,9.51-21.25,21.25-21.25,21.25,9.51,21.25,21.25Z"/>
      <g class="cls-20">
        <g>
          <path class="cls-14" d="m562.43,218.89c0,4.37-3.54,7.91-7.91,7.91s-7.91-3.54-7.91-7.91,3.54-7.91,7.91-7.91,7.91,3.54,7.91,7.91Z"/>
          <path class="cls-14" d="m547.93,226.75h13.18c4,0,7.25,3.25,7.25,7.25v21.58c0,4-3.25,7.25-7.25,7.25h-13.18c-4,0-7.25-3.25-7.25-7.25v-21.58c0-4,3.25-7.25,7.25-7.25Z"/>
          <g>
            <line class="cls-14" x1="547.11" y1="233.91" x2="547.11" y2="258.87"/>
            <line class="cls-14" x1="561.93" y1="233.91" x2="561.93" y2="258.87"/>
          </g>
        </g>
      </g>
    </g>
    <g>
      <polygon class="cls-4" points="248.7 202.57 237.54 209.27 237.54 201.14 189.84 201.14 189.84 228.2 237.54 228.2 237.54 220.08 248.7 226.78 248.7 202.57"/>
      <g>
        <circle class="cls-4" cx="205.81" cy="192.4" r="9.02" transform="translate(8.32 393.34) rotate(-88.57)"/>
        <path class="cls-4" d="m230.99,192.4c0,4.98-4.04,9.02-9.02,9.02s-9.02-4.04-9.02-9.02,4.04-9.02,9.02-9.02,9.02,4.04,9.02,9.02Z"/>
      </g>
      <g>
        <rect class="cls-1" x="197.25" y="208.03" width="23.28" height=".99"/>
        <rect class="cls-1" x="224.9" y="208.03" width="2.18" height=".99"/>
      </g>
    </g>
    <rect class="cls-14" x="467.54" y="263.15" width="51.34" height="40.49"/>
    <path class="cls-12" d="m507.31,276.88c0,3.2-2.59,5.79-5.78,5.79s-5.79-2.59-5.79-5.79,2.59-5.78,5.79-5.78,5.78,2.59,5.78,5.78Z"/>
    <polyline class="cls-14" points="467.87 293.99 484.08 277.61 498.31 293.52 511.76 287.01 518.88 293.52"/>
    <g>
      <rect class="cls-18" x="376.54" y="61.24" width="60.6" height="1.99"/>
      <rect class="cls-18" x="397.28" y="67.62" width="39.87" height="1.99"/>
    </g>
    <path class="cls-16" d="m439.89,1.5c-25.91,0-48.04,12.71-56.81,30.62,8.77,17.91,30.9,30.62,56.81,30.62s48.04-12.71,56.81-30.62c-8.77-17.9-30.89-30.62-56.81-30.62Z"/>
    <path class="cls-4" d="m411.12,32.12c0-15.89,12.88-28.77,28.77-28.77s28.77,12.88,28.77,28.77-12.88,28.77-28.77,28.77-28.77-12.88-28.77-28.77Z"/>
    <path class="cls-6" d="m439.89,1.5c-25.91,0-48.04,12.71-56.81,30.62,8.77,17.91,30.9,30.62,56.81,30.62s48.04-12.71,56.81-30.62c-8.77-17.9-30.89-30.62-56.81-30.62Z"/>
    <path class="cls-6" d="m467.93,6.91c-7.86-2.44-15.63-4.32-24.69-3.91-25.89,1.18-48.24,15.78-56.18,34.07"/>
    <path class="cls-19" d="m447.99,18.38l-8.11,13.73v-15.95c-8.81,0-15.95,7.14-15.95,15.95s7.14,15.95,15.95,15.95,15.95-7.14,15.95-15.95c0-5.85-3.15-10.96-7.84-13.73Z"/>
    <path class="cls-6" d="m450.05,49.72c-9.72,5.61-22.15,2.28-27.76-7.44-5.61-9.72-2.28-22.15,7.44-27.77"/>
    <path class="cls-6" d="m455.73,44.86c-.79.99-1.68,1.9-2.64,2.71"/>
    <g>
      <g>
        <path class="cls-9" d="m287.35,214.44c1.18-3.75,3.07-7.32,5.7-10.48l-.03.04-3.56-7.26,6.44-5.23,6.38,4.96-.04.03c3.61-1.93,7.5-3.07,11.42-3.44l2.63-7.63,8.24.85,1,7.99c3.77,1.15,7.35,3.06,10.5,5.65l7.22-3.55,5.25,6.45-4.94,6.35c1.92,3.61,3.05,7.49,3.43,11.42l7.61,2.6-.84,8.26-7.99,1c-1.15,3.77-3.05,7.35-5.66,10.5l3.53,7.21-6.44,5.23-6.33-4.92c-3.62,1.92-7.52,3.04-11.44,3.41l-2.62,7.63-8.25-.85-1-8.02c-3.76-1.15-7.34-3.06-10.48-5.66l-7.24,3.55-5.24-6.44,4.96-6.37c-1.9-3.61-3.02-7.49-3.39-11.4l-7.64-2.62.84-8.26,8.01-1.01Zm37.98,1.87c-3.95-4.86-11.08-5.57-15.93-1.63-4.86,3.95-5.59,11.07-1.64,15.92,3.95,4.85,11.08,5.6,15.93,1.65,4.85-3.95,5.59-11.09,1.64-15.95Z"/>
        <g>
          <path class="cls-6" d="m331.51,239.59c-8.92,8.45-23,8.08-31.45-.83-8.45-8.92-8.08-23,.84-31.45"/>
          <path class="cls-6" d="m336.31,232.97c-.59,1.25-1.3,2.44-2.12,3.56"/>
        </g>
        <g>
          <path class="cls-6" d="m305.29,211.71c6.7-6.36,17.29-6.07,23.64.63,6.35,6.7,6.07,17.29-.63,23.64"/>
          <path class="cls-6" d="m301.68,216.69c.45-.94.98-1.84,1.6-2.68"/>
        </g>
      </g>
      <g>
        <path class="cls-9" d="m335.54,162.89c1.64-5.22,4.27-10.19,7.93-14.59l-.05.05-4.95-10.1,8.95-7.28,8.88,6.9-.06.05c5.03-2.68,10.43-4.27,15.88-4.78l3.66-10.61,11.46,1.18,1.4,11.11c5.24,1.61,10.22,4.25,14.6,7.86l10.04-4.93,7.3,8.97-6.88,8.84c2.68,5.03,4.24,10.42,4.76,15.89l10.58,3.61-1.17,11.49-11.12,1.39c-1.6,5.24-4.24,10.23-7.87,14.61l4.91,10.03-8.95,7.28-8.81-6.85c-5.04,2.67-10.46,4.23-15.91,4.74l-3.65,10.61-11.48-1.18-1.39-11.15c-5.24-1.6-10.21-4.26-14.58-7.88l-10.07,4.94-7.29-8.96,6.89-8.86c-2.65-5.01-4.21-10.42-4.72-15.86l-10.63-3.64,1.17-11.48,11.14-1.4Zm52.83,2.6c-5.5-6.75-15.41-7.75-22.16-2.26-6.75,5.5-7.77,15.39-2.28,22.15,5.49,6.75,15.42,7.78,22.17,2.3,6.75-5.49,7.78-15.43,2.28-22.18Z"/>
        <g>
          <path class="cls-6" d="m396.97,197.89c-12.41,11.76-31.99,11.24-43.75-1.16-11.76-12.4-11.24-31.99,1.16-43.75"/>
          <path class="cls-6" d="m403.65,188.67c-.82,1.74-1.81,3.4-2.95,4.96"/>
        </g>
        <g>
          <path class="cls-6" d="m360.49,159.1c9.32-8.84,24.04-8.45,32.89.87,8.84,9.32,8.45,24.04-.87,32.89"/>
          <path class="cls-6" d="m355.47,166.02c.62-1.31,1.36-2.56,2.22-3.73"/>
        </g>
      </g>
    </g>
    <g>
      <rect class="cls-17" x="405.19" y="358.17" width="85.46" height="1.58"/>
      <rect class="cls-17" x="405.19" y="353.11" width="56.22" height="1.58"/>
    </g>
    <g>
      <path class="cls-4" d="m405.29,236.02h0c-21.34,0-38.64,17.31-38.64,38.64,0,7.05,1.9,13.64,5.19,19.32l33.46,57.96,33.46-57.96c3.3-5.68,5.17-12.28,5.17-19.32,0-21.33-17.29-38.64-38.63-38.64Zm0,63.84h0c-13.92,0-25.21-11.27-25.21-25.2s11.29-25.21,25.21-25.21h0c13.93,0,25.21,11.3,25.21,25.21s-11.28,25.2-25.21,25.2Z"/>
      <g>
        <path class="cls-6" d="m420.48,301.28c-14.51,8.38-33.06,3.41-41.43-11.1-8.37-14.51-3.4-33.06,11.1-41.43"/>
        <path class="cls-6" d="m428.95,294.03c-1.18,1.47-2.5,2.83-3.94,4.05"/>
      </g>
      <g>
        <path class="cls-6" d="m395.39,256.8c10.91-6.3,24.85-2.56,31.14,8.34,6.3,10.9,2.56,24.85-8.34,31.15"/>
        <path class="cls-6" d="m389.02,262.25c.89-1.1,1.88-2.13,2.97-3.04"/>
      </g>
    </g>
    <g>
      <polygon class="cls-2" points="41.12 248.14 28.05 248.14 16.83 207.03 41.12 207.03 41.12 248.14"/>
      <rect class="cls-11" x="34.47" y="217.35" width="17.37" height="9.02"/>
    </g>
    <polygon class="cls-2" points="130.82 141.65 130.47 141.65 71.02 164.21 71.02 198.79 130.47 221.35 130.82 221.35 130.82 141.65"/>
    <rect class="cls-10" x="9.36" y="156.28" width="61.66" height="50.45"/>
    <g>
      <rect class="cls-8" x="23.14" y="165.01" width="28.49" height="1.21"/>
      <rect class="cls-8" x="56.97" y="165.01" width="2.67" height="1.21"/>
    </g>
    <rect class="cls-2" x="1.75" y="170.29" width="11.21" height="22.42"/>
    <path class="cls-17" d="m135.07,164.81c.71-.6,1.78-.56,2.43.12,4.8,4.97,7.24,10.66,7.05,16.45-.18,5.81-2.96,11.33-8.02,15.95-.74.66-1.85.61-2.5-.12-.66-.72-.61-1.85.11-2.5,4.34-3.97,6.71-8.62,6.87-13.45.15-4.81-1.95-9.61-6.06-13.88-.68-.7-.66-1.82.04-2.5.03-.03.05-.05.08-.07Z"/>
    <g>
      <polygon class="cls-16" points="296.38 85.77 270.21 85.77 270.21 110.66 276.6 110.66 275.15 119.14 281.58 110.66 296.38 110.66 296.38 85.77"/>
      <path class="cls-17" d="m282,101.93c-.36,0-.7-.15-.95-.41l-2.14-2.25c-.5-.52-.47-1.35.05-1.85.52-.5,1.35-.48,1.84.04l1.12,1.18,3.79-4.62c.46-.56,1.28-.64,1.84-.18.56.46.64,1.28.18,1.84l-4.72,5.76c-.24.29-.59.46-.96.47-.02,0-.03,0-.05,0h0Z"/>
    </g>
    <g>
      <rect class="cls-17" x="225.79" y="173.3" width="32.21" height="1.38"/>
      <rect class="cls-17" x="184.52" y="173.3" width="32.21" height="1.38"/>
      <rect class="cls-17" x="175.46" y="173.3" width="3.02" height="1.38"/>
    </g>
    <g>
      <path class="cls-6" d="m301.07,173.23c0,6.99-5.67,12.66-12.66,12.66s-12.66-5.67-12.66-12.66,5.67-12.66,12.66-12.66,12.66,5.67,12.66,12.66Z"/>
      <polygon class="cls-6" points="293.7 173.23 286 169.05 286 177.41 293.7 173.23 286 169.05 286 177.41 293.7 173.23"/>
    </g>
    <polygon class="cls-6" points="496.45 69.45 483.36 62.31 483.36 76.59 496.45 69.45 483.36 62.31 483.36 76.59 496.45 69.45"/>
    <path class="cls-14" d="m393.39,85.06c0-2.92-2.19-5.3-4.89-5.3-1.9,0-3.55,1.18-4.36,2.9-.81-1.72-2.46-2.9-4.36-2.9-2.7,0-4.92,2.37-4.89,5.3.05,4.5,9.65,13.53,10.01,13.53.07,0,8.49-9.2,8.49-13.53Z"/>
    <path class="cls-12" d="m456.65,167.07c0-2.92-2.19-5.3-4.89-5.3-1.9,0-3.55,1.18-4.36,2.9-.81-1.72-2.46-2.9-4.36-2.9-2.7,0-4.92,2.37-4.89,5.3.05,4.5,9.65,13.53,10.01,13.53.07,0,8.49-9.2,8.49-13.53Z"/>
    <g>
      <path class="cls-17" d="m497.64,108.17l8.25-5.47c.26-.03.5-.16.67-.39.13-.18.19-.4.18-.61.02-.21-.03-.43-.15-.62-.16-.23-.4-.38-.65-.42l-8-5.82c-.43-.31-1.04-.22-1.35.21-.31.43-.22,1.04.22,1.35l7.19,5.24-7.41,4.92c-.45.3-.57.89-.27,1.34.29.44.89.57,1.34.27Z"/>
      <path class="cls-17" d="m488.95,107.98l8.25-5.47c.26-.03.51-.16.67-.39.13-.18.19-.4.18-.61.02-.21-.03-.43-.15-.62-.15-.23-.4-.38-.65-.42l-8-5.82c-.43-.31-1.04-.22-1.35.21-.31.43-.22,1.04.21,1.35l7.2,5.24-7.42,4.92c-.45.29-.57.89-.27,1.34.29.44.89.56,1.34.27Z"/>
      <path class="cls-17" d="m480.25,108.17l8.24-5.47c.26-.03.51-.16.67-.39.14-.18.19-.4.18-.61.02-.21-.03-.43-.15-.62-.15-.23-.39-.38-.65-.42l-8-5.82c-.44-.32-1.04-.22-1.35.21-.31.43-.22,1.04.21,1.35l7.2,5.23-7.42,4.92c-.44.3-.57.9-.27,1.34.29.45.89.57,1.34.27Z"/>
      <path class="cls-17" d="m471.56,107.98l8.25-5.47c.26-.03.5-.16.67-.39.13-.18.19-.4.18-.61.02-.21-.03-.43-.15-.62-.15-.23-.39-.38-.65-.42l-8-5.82c-.43-.32-1.04-.22-1.35.21-.31.43-.22,1.04.22,1.35l7.19,5.24-7.42,4.92c-.45.3-.57.9-.27,1.34.29.45.9.57,1.34.27Z"/>
    </g>
    <g>
      <path class="cls-17" d="m352.14,295.38l7.08-4.69c.22-.03.43-.14.58-.33.11-.16.16-.35.15-.53.02-.18-.02-.37-.13-.53-.14-.2-.34-.32-.56-.36l-6.87-5c-.37-.27-.89-.19-1.16.18-.27.37-.19.89.18,1.16l6.18,4.5-6.37,4.22c-.38.25-.49.77-.23,1.15.25.38.77.49,1.15.23Z"/>
      <path class="cls-17" d="m344.67,295.21l7.08-4.69c.22-.03.43-.14.58-.34.11-.16.16-.34.16-.53.02-.18-.02-.37-.13-.53-.13-.2-.34-.32-.56-.36l-6.87-5c-.37-.27-.89-.19-1.16.18-.27.37-.19.89.18,1.16l6.18,4.49-6.37,4.22c-.38.25-.49.77-.23,1.15.25.38.77.48,1.15.23Z"/>
      <path class="cls-17" d="m337.21,295.37l7.08-4.69c.22-.03.43-.14.58-.34.12-.16.16-.34.16-.53.01-.18-.02-.37-.13-.53-.13-.2-.34-.32-.56-.36l-6.87-5c-.37-.27-.89-.19-1.16.18-.27.37-.19.89.18,1.16l6.18,4.49-6.37,4.22c-.38.25-.49.77-.23,1.15.25.38.77.49,1.15.23Z"/>
      <path class="cls-17" d="m329.75,295.21l7.08-4.7c.22-.03.43-.14.58-.34.12-.16.16-.35.15-.53.02-.18-.02-.37-.13-.53-.13-.2-.34-.32-.56-.36l-6.87-5c-.37-.27-.89-.19-1.16.18-.27.37-.19.89.18,1.16l6.17,4.49-6.37,4.22c-.38.26-.49.77-.24,1.15.25.38.77.49,1.15.24Z"/>
    </g>
    <g>
      <path class="cls-17" d="m551.05,330.69l7.08-4.69c.22-.03.43-.14.58-.33.12-.16.16-.35.15-.53.02-.18-.02-.37-.13-.53-.14-.2-.34-.32-.56-.36l-6.87-5c-.37-.27-.89-.19-1.16.18-.27.37-.19.89.18,1.16l6.18,4.5-6.37,4.22c-.38.25-.49.77-.23,1.15.25.38.77.49,1.15.23Z"/>
      <path class="cls-17" d="m543.58,330.52l7.08-4.69c.22-.03.43-.14.58-.34.11-.16.16-.34.16-.53.02-.18-.02-.37-.13-.53-.13-.2-.34-.32-.56-.36l-6.87-5c-.37-.27-.89-.19-1.16.18-.27.37-.19.89.18,1.16l6.18,4.49-6.37,4.22c-.38.25-.49.77-.23,1.15.25.38.77.48,1.15.23Z"/>
      <path class="cls-17" d="m536.12,330.68l7.08-4.69c.22-.03.43-.14.58-.34.12-.16.16-.34.16-.53.01-.18-.02-.37-.13-.53-.13-.2-.34-.32-.56-.36l-6.87-5c-.37-.27-.89-.19-1.16.18-.27.37-.19.89.18,1.16l6.18,4.49-6.37,4.22c-.38.25-.49.77-.23,1.15.25.38.77.49,1.15.23Z"/>
      <path class="cls-17" d="m528.66,330.52l7.08-4.7c.22-.03.43-.14.58-.34.12-.16.16-.35.15-.53.02-.18-.02-.37-.13-.53-.13-.2-.34-.32-.56-.36l-6.87-5c-.37-.27-.89-.19-1.16.18-.27.37-.19.89.18,1.16l6.17,4.49-6.37,4.22c-.38.26-.49.77-.23,1.15.25.38.77.49,1.15.24Z"/>
    </g>
    <g>
      <line class="cls-13" x1="136.06" y1="137.34" x2="374.31" y2="27.38"/>
      <line class="cls-13" x1="136.06" y1="222.86" x2="374.31" y2="332.82"/>
    </g>
    <polygon class="cls-3" points="587.5 89.47 587.69 89.47 587.69 67.01 564.4 78.29 587.5 89.47"/>
    <polygon class="cls-3" points="541.05 66.98 541.05 89.47 541.29 89.47 564.4 78.29 541.05 66.98"/>
    <polygon class="cls-3" points="564.4 78.29 541.29 89.47 587.5 89.47 564.4 78.29"/>
    <polygon class="cls-5" points="587.69 67.01 587.69 66.97 541.05 66.97 541.05 66.98 564.4 85.77 587.69 67.01"/>
  </g>
</svg>